<?xml version="1.0" encoding="UTF-8" standalone="no"?>

<svg
   version="1.1"
   width="3676"
   height="1934.7333"
   viewBox="0 0 3676 1934.7333"
   xmlns="http://www.w3.org/2000/svg"
   xmlns:svg="http://www.w3.org/2000/svg">

  <g
     id="g8"
     transform="matrix(1.3333333,0,0,-1.3333333,0,1934.7333)">
    <g
       id="g10"
       transform="scale(0.1)">
      <path
         d="M 27570,0 H 0 V 14510.5 H 27570 V 0"
         style="fill:#42e5d2;fill-opacity:1;fill-rule:nonzero;stroke:none"
         id="path12" />
      <path
         d="M 23525.7,3100.3 H 4716.36 c -51.21,0 -92.74,41.5 -92.74,92.8 0,51.2 41.53,92.7 92.74,92.7 H 23525.7 c 51.2,0 92.8,-41.5 92.8,-92.7 0,-51.3 -41.6,-92.8 -92.8,-92.8"
         style="fill:#ffffff;fill-opacity:1;fill-rule:nonzero;stroke:none"
         id="path14" />
      <path
         d="m 22668.6,2532.1 c -34.3,0 -67.3,19.2 -83.4,52.1 -22.5,46 -3.4,101.6 42.7,124 l 993,484.9 -993,484.8 c -46.1,22.5 -65.2,78 -42.7,124 22.5,46 78.1,65.1 124,42.7 l 1163.7,-568.2 c 31.9,-15.5 52.1,-47.9 52.1,-83.3 0,-35.5 -20.2,-67.8 -52.1,-83.4 l -1163.7,-568.1 c -13.1,-6.4 -26.9,-9.5 -40.6,-9.5"
         style="fill:#ffffff;fill-opacity:1;fill-rule:nonzero;stroke:none"
         id="path16" />
      <path
         d="m 4286.85,3193.1 c 0,157 127.29,284.3 284.31,284.3 157.02,0 284.31,-127.3 284.31,-284.3 0,-157.1 -127.29,-284.3 -284.31,-284.3 -157.02,0 -284.31,127.2 -284.31,284.3"
         style="fill:#ffffff;fill-opacity:1;fill-rule:nonzero;stroke:none"
         id="path18" />
      <path
         d="m 22668.6,9393.74 c -34.3,0 -67.3,19.14 -83.4,52.07 -22.5,46.03 -3.4,101.56 42.7,124.03 l 993,484.86 -993,484.8 c -46.1,22.5 -65.2,78 -42.7,124 22.5,46.1 78.1,65.2 124,42.7 l 1163.7,-568.2 c 31.9,-15.6 52.1,-47.9 52.1,-83.3 0,-35.5 -20.2,-67.82 -52.1,-83.37 l -1163.7,-568.16 c -13.1,-6.4 -26.9,-9.43 -40.6,-9.43"
         style="fill:#ffffff;fill-opacity:1;fill-rule:nonzero;stroke:none"
         id="path20" />
      <path
         d="m 4286.85,10054.7 c 0,157 127.29,284.3 284.31,284.3 157.02,0 284.31,-127.3 284.31,-284.3 0,-157.06 -127.29,-284.35 -284.31,-284.35 -157.02,0 -284.31,127.29 -284.31,284.35"
         style="fill:#ffffff;fill-opacity:1;fill-rule:nonzero;stroke:none"
         id="path22" />
      <path
         d="m 9116.67,10183.1 c 351.76,-6.6 720.1,-19.8 1127.13,-42.6 94.4,-5.3 186.9,-24.5 278.1,-55.9 109.8,380.4 297.7,741.6 562.9,1082.3 -255.9,81.9 -505.2,110.9 -747.3,64.7 -432.33,-82.6 -816.04,-399.9 -1173.07,-970.1 -16.33,-26.1 -32.25,-52.2 -47.76,-78.4 z m 2278.03,1065.2 c 513.1,-221.7 1038.7,-608.2 1581.9,-1007.7 291.3,-214.2 586.7,-431.44 884.7,-625.83 117.4,509.63 289.8,946.03 515.1,1303.03 241.6,382.6 537.7,667 882.9,848.3 -137.3,98.2 -279.2,186 -424.3,262.3 -987,518.9 -1992.8,442.7 -2831.9,-214.6 -231,-181 -433.8,-369.6 -608.4,-565.5 z M 15622,11719 c 734.5,-616.7 1273.1,-1490.2 1431.6,-2329.51 23.5,13.91 47.1,27.93 70.8,42.03 390,231.72 816.2,484.99 1396.3,617.18 -141.4,396.1 -379.2,759.7 -693.1,1058.1 -315.8,300.2 -689.5,516.2 -1080.6,624.5 -386.6,107 -774.3,102.6 -1125,-12.3 z M 14027.6,9509.01 c 395,-244.44 794.5,-440.8 1195.5,-529.81 712.3,-158.08 1178.9,36.7 1660.2,311 -69.3,425.95 -246.9,874.3 -520.2,1303.8 -256,402.1 -578.3,760 -938.3,1047.1 -350,-162.8 -649.4,-438.8 -891.5,-822.3 -223.7,-354.3 -392.9,-793.1 -505.7,-1309.79 z m -3333,501.59 c 419.9,-215.01 820.6,-668.75 1266.4,-1173.48 436.5,-494.24 899.8,-1018.79 1436.6,-1379.3 161.2,402.39 275.1,875.21 337.2,1411.4 22.2,191.64 50.6,375.53 85.1,551.33 -322.3,206.66 -640,440.32 -953.2,670.65 -553.4,406.9 -1087.9,800 -1597.9,1008.5 -274.9,-342.3 -466.6,-705.9 -574.2,-1089.1 z m 2863.5,-2654.17 c 592.6,-350.59 1275,-489.75 2105.4,-176.66 770.8,290.6 1202.6,838.33 1248.7,1583.94 6.6,106.61 5.1,216.08 -4.3,327.61 -479.8,-265.93 -984,-457.66 -1725,-293.19 -405.1,89.92 -803.1,280.06 -1194.2,517.13 -27.7,-149.83 -50.9,-305.67 -69.6,-467.39 -70.3,-606.21 -198.5,-1095.83 -361,-1491.44 z m -2908.7,2468.11 c -52.5,-254.11 -69.2,-516.45 -49.9,-786.73 61.1,-851.38 470.1,-1560.35 644.7,-1863.08 16.7,-28.96 31.5,-54.63 44,-76.82 231.6,-412.16 547.5,-761.79 930,-1032.88 465.9,225.82 839.6,640.77 1105.5,1220.42 -573.2,377.62 -1064.6,934.03 -1501.7,1428.89 -419.6,475.11 -797.4,902.87 -1172.6,1110.2 z m -1634.54,175.15 c -252.5,-488.17 -365.53,-989.34 -336.34,-1493.5 30.38,-524.75 218.48,-1035.2 543.94,-1476.17 312.41,-423.28 743.31,-765.59 1213.34,-963.87 486.5,-205.25 983.8,-249.8 1438.1,-128.84 48.9,13.02 97,27.84 144.3,44.45 -363.2,276.42 -665.4,622.64 -891.7,1025.27 -12.2,21.68 -26.6,46.73 -42.9,75.01 -181.1,313.78 -605,1048.63 -669.1,1942.52 -21.7,303 -1.1,596.29 61.4,879.52 -80.5,29.03 -161.2,46.67 -242.5,51.23 -446.6,25.04 -840.87,38.51 -1218.54,44.38 z M 12393.8,5948.98 c 129.2,-79.54 265,-150.7 406.9,-212.96 610.1,-267.71 1314.6,-367.98 2037.5,-290.02 823.1,88.78 1601.7,396.35 2251.5,889.41 700.6,531.58 1206.2,1254.42 1462.2,2090.32 148.7,485.7 157,972.03 24.8,1446.43 -554.5,-122.93 -960.8,-364.33 -1357.5,-600.1 -45.3,-26.86 -90.3,-53.61 -135.3,-80.02 17.5,-148.96 22.3,-296.14 13.4,-439.77 -24.1,-389.67 -145.4,-734.41 -360.7,-1024.65 -233.2,-314.54 -572.3,-557.26 -1007.7,-721.41 -790.8,-298.15 -1525.7,-239.34 -2245.4,180 -310.5,-664.41 -720.6,-1033 -1089.7,-1237.23 z m 1970.5,-714.14 c -580.2,-0.01 -1138.8,112.23 -1638.1,331.33 -186,81.65 -362.4,177.83 -527.7,287.43 -98.6,-42.07 -192,-72.92 -276.9,-95.53 -494.4,-131.64 -1033.1,-84.21 -1557.9,137.19 -500.26,211.03 -958.57,574.92 -1290.48,1024.62 -346.89,469.99 -547.4,1014.83 -579.89,1575.6 -29.5,509.54 76.41,1014.76 315.28,1506.72 -560.03,4.8 -1097.27,-5.78 -1733.4,-18.35 -680.63,-13.44 -1452.08,-28.68 -2468.71,-28.68 -51.21,0 -92.75,41.52 -92.75,92.73 0,51.2 41.54,92.8 92.75,92.8 1014.78,0 1785.28,15.2 2465.04,28.6 652.6,12.9 1223.89,24.2 1833.04,17 32.35,58.1 66.54,115.9 102.65,173.6 385.91,616.4 809.66,961.1 1295.47,1053.9 299.1,57.1 601.5,15 908.1,-93.2 191.9,222.3 418,435.5 677.9,639.2 900.1,705 1977.1,787.7 3032.6,232.8 184.4,-97 362,-210.7 530.6,-338 18.4,7.3 37,14.3 55.7,21.1 400.3,145.1 846,157 1288.9,34.4 420.4,-116.4 821.1,-347.7 1158.9,-668.9 341.7,-324.8 599,-722.4 749,-1155.8 203.3,35.1 424.9,55.3 669,55.3 h 4258.8 c 51.2,0 92.8,-41.6 92.8,-92.8 0,-51.21 -41.6,-92.73 -92.8,-92.73 h -4258.8 c -224.1,0 -427.3,-17.29 -614.1,-47.87 135.5,-498.85 125.4,-1028.2 -30.1,-1535.86 -267.4,-873.38 -795.5,-1628.52 -1527.4,-2183.79 -676.6,-513.44 -1487.1,-833.66 -2343.7,-926.07 -165.7,-17.87 -330.6,-26.74 -493.8,-26.74"
         style="fill:#ffffff;fill-opacity:1;fill-rule:nonzero;stroke:none"
         id="path24" />
      <path
         d="m 3549.76,3056.8 c -75.77,170 -138.61,319.7 -194.05,471.2 -57.29,-138.6 -125.68,-308.6 -197.76,-471.2 z m -308.52,679.4 c 43.32,92.9 175.24,93.2 219.03,0.6 l 454.5,-961.6 c 34.01,-72.9 -19.22,-156.4 -99.68,-156.4 v 0 c -43.36,0 -82.68,25.4 -100.39,65 l -89.16,199.2 h -543.36 l -89.16,-199.2 c -17.71,-39.6 -57.03,-65 -100.39,-65 h -0.01 c -80.46,0 -133.69,83.5 -99.68,156.4 l 448.3,961"
         style="fill:#ffffff;fill-opacity:1;fill-rule:nonzero;stroke:none"
         id="path26" />
      <path
         d="m 24555.8,2805.4 h 249.5 c 133.1,0 227.3,79.5 227.3,207 0,131.2 -85,205.1 -201.4,205.1 h -275.4 z m 201.5,578.5 c 38.8,0 77.6,1.8 112.7,5.5 68.4,22.2 112.7,83.2 112.7,173.7 0,123.9 -83.1,199.7 -214.3,199.7 h -212.6 v -378.9 z m 513.7,-382.6 c 0,-240.2 -192.2,-382.5 -474.9,-382.5 h -349.3 c -63.3,0 -114.6,51.3 -114.6,114.6 v 1101.4 c 0,63.3 51.3,114.6 114.6,114.6 h 306.8 c 271.6,0 465.7,-131.2 465.7,-369.6 0,-120.1 -70.2,-218.1 -168.2,-262.5 123.8,-42.5 219.9,-168.1 219.9,-316"
         style="fill:#ffffff;fill-opacity:1;fill-rule:nonzero;stroke:none"
         id="path28" />
      <path
         d="m 3644.02,9924.51 c -75.76,169.99 -138.6,319.69 -194.04,471.29 -57.29,-138.6 -125.68,-308.6 -197.76,-471.29 z M 3335.5,10604 c 43.32,92.8 175.25,93.2 219.04,0.5 l 454.49,-961.51 c 34.02,-72.92 -19.21,-156.48 -99.67,-156.48 v 0 c -43.36,0 -82.68,25.47 -100.4,65.05 l -89.16,199.22 h -543.35 l -89.16,-199.22 c -17.72,-39.58 -57.03,-65.05 -100.4,-65.05 v 0 c -80.46,0 -133.7,83.56 -99.68,156.48 L 3335.5,10604"
         style="fill:#ffffff;fill-opacity:1;fill-rule:nonzero;stroke:none"
         id="path30" />
      <path
         d="m 24650.1,9673.17 h 249.5 c 133,0 227.3,79.47 227.3,206.99 0,131.24 -85,205.14 -201.4,205.14 h -275.4 z m 201.4,578.43 c 38.9,0 77.7,1.9 112.8,5.6 68.3,22.2 112.7,83.1 112.7,173.7 0,123.8 -83.2,199.6 -214.4,199.6 h -212.5 v -378.9 z m 513.8,-382.54 c 0,-240.26 -192.2,-382.55 -474.9,-382.55 h -349.3 c -63.3,0 -114.6,51.32 -114.6,114.64 v 1101.35 c 0,63.3 51.3,114.7 114.6,114.7 h 306.7 c 271.7,0 465.8,-131.3 465.8,-369.7 0,-120.1 -70.3,-218.1 -168.2,-262.4 123.8,-42.5 219.9,-168.2 219.9,-316.04"
         style="fill:#ffffff;fill-opacity:1;fill-rule:nonzero;stroke:none"
         id="path32" />
    </g>
  </g>
</svg>
